PathFileType	4	(X/Y/Z)	OpenSim_Sub10_CSStiffKnee_Magnet.trc
DataRate	CameraRate	NumFrames	NumMarkers	Units	OrigDataRate	OrigDataStartFrame	OrigNumFrames
100	100	40	8	m	100	7153	8174
Frame#	Time	torso_imu_offset_imu	pelvis_imu_offset_imu	tibia_r_imu_offset_imu	femur_r_imu_offset_imu	tibia_l_imu_offset_imu	femur_l_imu_offset_imu	toes_r_imu_offset_imu	toes_l_imu_offset_imu
				X1	Y1	Z1	X2	Y2	Z2	X3	Y3	Z3	X4	Y4	Z4	X5	Y5	Z5	X6	Y6	Z6	X7	Y7	Z7	X8		Y8	Z8	

7153	71.52000000	-0.93860251	-0.09108459	0.10218801	-0.61305305	0.08082626	-0.71766899	-0.72365905	-0.51255072	-0.11431457	-0.80498729	-0.23421128	0.08785995	-0.39748051	0.68686351	0.25202258	-0.59429485	0.35559297	0.28280347	-0.64930471	-0.22395425	-0.37668270	-0.81220340	-0.22826786	0.00709674
7154	71.53000000	-0.94415017	-0.08778142	0.10197053	-0.61038104	0.07136822	-0.72574302	-0.72412819	-0.51432385	-0.11245477	-0.79733221	-0.25657815	0.08818780	-0.37941910	0.69034935	0.26496270	-0.60061457	0.34424575	0.27578998	-0.65836334	-0.22056662	-0.37385586	-0.81030524	-0.21562669	0.03159180
7155	71.54000000	-0.94295431	-0.08133997	0.10387117	-0.60331326	0.06314046	-0.72409108	-0.72014440	-0.52441096	-0.11574483	-0.79512370	-0.27883065	0.08588562	-0.36643290	0.69318000	0.27859376	-0.60660231	0.33559076	0.27531175	-0.66068863	-0.22021868	-0.37337161	-0.81183967	-0.20246818	0.05997364
7156	71.55000000	-0.93985017	-0.08041295	0.09964831	-0.60134091	0.06009700	-0.72713106	-0.71824908	-0.52374754	-0.12028868	-0.78813096	-0.30252170	0.07702439	-0.34865418	0.69457994	0.29653365	-0.61628816	0.32430132	0.27309228	-0.65605431	-0.21811379	-0.37212247	-0.81158277	-0.19953597	0.08566572
7157	71.56000000	-0.94436771	-0.07832511	0.10144349	-0.59786258	0.05458955	-0.73385854	-0.71610831	-0.52485681	-0.12311845	-0.78117124	-0.31221710	0.07009658	-0.32886164	0.69673277	0.32034316	-0.62073648	0.30832837	0.26476341	-0.65446979	-0.22232737	-0.37109785	-0.81059887	-0.19542956	0.09412331
7158	71.57000000	-0.94244109	-0.07301279	0.09996434	-0.59983611	0.04718483	-0.73490908	-0.71609706	-0.52380563	-0.12787485	-0.77862498	-0.32395493	0.06472749	-0.31423036	0.70392870	0.32586674	-0.62945502	0.30078529	0.26278565	-0.65425361	-0.21953490	-0.37037596	-0.80975843	-0.19284726	0.10582318
7159	71.58000000	-0.94409883	-0.07260868	0.09961427	-0.60467189	0.04573742	-0.73456060	-0.71863622	-0.52444429	-0.12350838	-0.77584009	-0.33362438	0.06053624	-0.30120172	0.70345459	0.32203509	-0.63673480	0.28851697	0.26299462	-0.65751533	-0.21751260	-0.36634738	-0.80625915	-0.19072149	0.11225845
7160	71.59000000	-0.94265852	-0.06709865	0.09731865	-0.60530629	0.04136060	-0.73452541	-0.71402323	-0.52629402	-0.12048082	-0.77480432	-0.34040858	0.05912544	-0.28674504	0.71235920	0.32654030	-0.63994848	0.27633477	0.26437688	-0.65821735	-0.22025984	-0.36489286	-0.80972581	-0.18726319	0.10704285
7161	71.60000000	-0.94543904	-0.06076641	0.09792386	-0.60210463	0.03939230	-0.73473769	-0.71561245	-0.52921264	-0.11957836	-0.76607941	-0.34945168	0.05761669	-0.27203938	0.72110564	0.31141836	-0.64381173	0.26960323	0.25749203	-0.65491237	-0.22370620	-0.36381230	-0.80838482	-0.18346385	0.09895599
7162	71.61000000	-0.94611982	-0.05556095	0.09976053	-0.60076676	0.03405569	-0.74315735	-0.71750599	-0.52894798	-0.11788572	-0.76162154	-0.35336877	0.06298775	-0.27276754	0.72643169	0.29564382	-0.65116279	0.26373812	0.25558884	-0.65560114	-0.22539208	-0.36222268	-0.80849933	-0.18108662	0.09753398
7163	71.62000000	-0.94291675	-0.05043041	0.10199690	-0.60545167	0.02966378	-0.74346718	-0.71718013	-0.53241883	-0.11995760	-0.75952057	-0.36860036	0.06649793	-0.27935217	0.73054649	0.28410940	-0.65706418	0.25282924	0.25456798	-0.65806677	-0.22553799	-0.36467016	-0.81473895	-0.17430697	0.08192675
7164	71.63000000	-0.93746166	-0.04573589	0.10549735	-0.60523588	0.02254612	-0.74060648	-0.71722307	-0.53351051	-0.11983257	-0.75519813	-0.37354307	0.06682150	-0.28506012	0.73350904	0.26755940	-0.65211749	0.24057610	0.25189799	-0.65910041	-0.23235951	-0.36248086	-0.81597003	-0.16864438	0.06432696
7165	71.64000000	-0.93826757	-0.04470919	0.10696492	-0.59556734	0.01416106	-0.73932739	-0.71471429	-0.53531895	-0.11609900	-0.74772020	-0.38262576	0.07315885	-0.29071879	0.73858582	0.25110553	-0.65734016	0.23065728	0.25361211	-0.65581489	-0.23685573	-0.36005530	-0.81801354	-0.15822650	0.04479574
7166	71.65000000	-0.94683467	-0.04094140	0.11025707	-0.59611137	0.00746318	-0.74807463	-0.71285359	-0.53546333	-0.11894526	-0.74202958	-0.38957511	0.07779123	-0.29662237	0.74059293	0.23932485	-0.66454956	0.22566069	0.24833000	-0.65402845	-0.23902241	-0.36115515	-0.81824624	-0.14984621	0.01999325
7167	71.66000000	-0.94011066	-0.03576674	0.10657501	-0.60116482	0.00626689	-0.74929678	-0.71900698	-0.53707327	-0.12001729	-0.73524477	-0.39854949	0.07935040	-0.31284823	0.73780487	0.22262554	-0.66390119	0.21643675	0.24692921	-0.65411892	-0.23786032	-0.35842531	-0.82428820	-0.14374526	-0.01077888
7168	71.67000000	-0.94449657	-0.03781322	0.11070779	-0.59313033	-0.00070204	-0.74073011	-0.72246778	-0.53870138	-0.12495400	-0.73551256	-0.40942412	0.07644301	-0.33336559	0.73286909	0.20567231	-0.66433570	0.21084979	0.24803976	-0.65569971	-0.24020338	-0.36245936	-0.82170348	-0.13257535	-0.03158825
7169	71.68000000	-0.94604539	-0.03513386	0.11587935	-0.59309599	-0.00638767	-0.75122188	-0.71417767	-0.54166021	-0.12586615	-0.72752556	-0.41474833	0.07386685	-0.34595688	0.73039585	0.18708705	-0.67111974	0.20580559	0.24151802	-0.65512364	-0.24849967	-0.36241613	-0.81559174	-0.12359919	-0.05483221
7170	71.69000000	-0.94112993	-0.03619208	0.12043484	-0.59186755	-0.01047850	-0.75460985	-0.71137769	-0.54145658	-0.13591050	-0.72301817	-0.42033589	0.06892961	-0.37084603	0.72502510	0.17327428	-0.67702570	0.19514826	0.23986356	-0.65360549	-0.24745372	-0.36018827	-0.81508263	-0.11966643	-0.09100349
7171	71.70000000	-0.94466634	-0.02923440	0.12492599	-0.59374737	-0.01542634	-0.74865534	-0.70972850	-0.54512065	-0.12704749	-0.72288244	-0.43024767	0.07343902	-0.39899379	0.71150559	0.15937036	-0.67332852	0.19272216	0.23456322	-0.65491299	-0.24594023	-0.35878634	-0.81014162	-0.10924364	-0.11617238
7172	71.71000000	-0.94197016	-0.02743839	0.12511504	-0.59677668	-0.02345738	-0.74962054	-0.71213981	-0.55427136	-0.12436293	-0.71561809	-0.43494173	0.07021029	-0.41440931	0.69638781	0.14427926	-0.67346767	0.18089113	0.22764177	-0.65011122	-0.25031483	-0.36046305	-0.80396488	-0.10654018	-0.14456102
7173	71.72000000	-0.94203938	-0.02824695	0.12576763	-0.58902865	-0.02365637	-0.75234712	-0.70939192	-0.55457205	-0.13666590	-0.71235286	-0.44129035	0.06733510	-0.43546449	0.68704193	0.13345608	-0.67881762	0.17612739	0.22360711	-0.65607374	-0.25233859	-0.35481889	-0.80312348	-0.09537607	-0.17004238
7174	71.73000000	-0.94883338	-0.02195547	0.13136793	-0.59217950	-0.02277253	-0.75366240	-0.70822780	-0.55391747	-0.13762006	-0.70732701	-0.45166668	0.06830290	-0.45854737	0.67355340	0.12416659	-0.68211498	0.17415308	0.22096854	-0.65912379	-0.24942282	-0.35499744	-0.79285064	-0.09185927	-0.18939313
7175	71.74000000	-0.94501997	-0.02272052	0.13375826	-0.59051907	-0.02220521	-0.75136354	-0.70563652	-0.55917234	-0.13902387	-0.70322486	-0.45717493	0.06667762	-0.48352755	0.65305668	0.11929462	-0.68162678	0.16924153	0.22529304	-0.65248941	-0.24549287	-0.35991308	-0.78564043	-0.09139956	-0.20833674
7176	71.75000000	-0.94386481	-0.02197205	0.13667524	-0.58977796	-0.02495794	-0.75245674	-0.70064590	-0.55707121	-0.13876657	-0.70065926	-0.46033122	0.05926034	-0.50545393	0.63742221	0.11743947	-0.68596782	0.15814330	0.22313014	-0.65380412	-0.24838451	-0.35438295	-0.78326199	-0.09354318	-0.22763890
7177	71.76000000	-0.94238353	-0.02277467	0.14562363	-0.59195596	-0.02997970	-0.75951378	-0.70032398	-0.56675015	-0.13683351	-0.69352288	-0.46794605	0.05695294	-0.52877978	0.62293549	0.11718103	-0.68833470	0.15302157	0.21661264	-0.65847696	-0.24856225	-0.35963834	-0.77699344	-0.10321137	-0.24633866
7178	71.77000000	-0.94204437	-0.02113931	0.14381446	-0.58543219	-0.02882536	-0.75448756	-0.69872838	-0.57180577	-0.13946108	-0.69220059	-0.48045858	0.05978479	-0.55433596	0.59980954	0.11251365	-0.69053872	0.14115334	0.22315369	-0.65426246	-0.24848344	-0.35946090	-0.76812709	-0.10508208	-0.26596978
7179	71.78000000	-0.95027026	-0.01757959	0.14589493	-0.58357928	-0.02717701	-0.75979566	-0.69729125	-0.57200314	-0.14469846	-0.68488776	-0.48182899	0.05839391	-0.56867207	0.58076687	0.11225929	-0.69242647	0.13988648	0.21802074	-0.65166267	-0.24973256	-0.35537728	-0.76271305	-0.11403616	-0.28431783
7180	71.79000000	-0.94709627	-0.01587311	0.14879461	-0.57936778	-0.03049561	-0.76417103	-0.69127321	-0.57551754	-0.14622630	-0.68045017	-0.48428910	0.06325230	-0.58856100	0.56529531	0.11504042	-0.69407707	0.13721716	0.21245459	-0.65014856	-0.25000789	-0.35664226	-0.75932491	-0.12656098	-0.30531986
7181	71.80000000	-0.94033800	-0.01354294	0.15156145	-0.57574798	-0.03214175	-0.76140040	-0.69104377	-0.57992146	-0.14603843	-0.67721893	-0.48968154	0.06809652	-0.61006338	0.54479844	0.11645745	-0.70122800	0.12826618	0.21207201	-0.65171968	-0.25620139	-0.35520699	-0.74358583	-0.13747284	-0.32504522
7182	71.81000000	-0.94414684	-0.01145320	0.15172754	-0.57849672	-0.03303856	-0.76217720	-0.68530105	-0.58593632	-0.14470196	-0.67231125	-0.49651070	0.07119635	-0.62310503	0.52051298	0.12429532	-0.70130374	0.12452995	0.21194051	-0.64600248	-0.25544670	-0.35979087	-0.73146998	-0.14495977	-0.34461759
7183	71.82000000	-0.94292466	-0.01022100	0.15307701	-0.57732583	-0.03559655	-0.76166879	-0.67752114	-0.58676749	-0.15079118	-0.67221039	-0.50225829	0.07786936	-0.63827723	0.49936198	0.11623017	-0.70296605	0.12230918	0.20544720	-0.64656395	-0.25465856	-0.35348171	-0.72551110	-0.15440346	-0.36982691
7184	71.83000000	-0.94059478	-0.01266164	0.15700432	-0.57810065	-0.03624851	-0.76392767	-0.67401175	-0.58826721	-0.15676459	-0.66991118	-0.50851037	0.07396518	-0.65699334	0.47756106	0.11719966	-0.70472359	0.11578181	0.20274091	-0.64954883	-0.25567922	-0.35262459	-0.70860824	-0.16250100	-0.38098593
7185	71.84000000	-0.94006357	-0.00894742	0.15826306	-0.57699835	-0.03608243	-0.77139560	-0.67010026	-0.59635420	-0.15455028	-0.66241105	-0.51602232	0.07451253	-0.66918724	0.45183048	0.11651345	-0.70654823	0.11802409	0.20594989	-0.64383610	-0.25769328	-0.35684325	-0.69813099	-0.17124361	-0.40393112
7186	71.85000000	-0.93745044	-0.00570922	0.16231182	-0.57086023	-0.03621976	-0.76326556	-0.67016592	-0.60085538	-0.14640167	-0.65477502	-0.52139429	0.07548331	-0.68313104	0.43323887	0.11364785	-0.70447569	0.10997287	0.20894597	-0.63675451	-0.26240964	-0.35535383	-0.68501985	-0.18123644	-0.42022610
7187	71.86000000	-0.93647440	-0.00670989	0.16405916	-0.57320390	-0.03631109	-0.76428226	-0.66608912	-0.60349795	-0.14960128	-0.64986739	-0.52132815	0.07741709	-0.69257867	0.40914670	0.11825483	-0.71069386	0.10099883	0.20631834	-0.63434569	-0.26488823	-0.35837984	-0.67609109	-0.18869617	-0.42969599
7188	71.87000000	-0.93787511	-0.00511736	0.16407830	-0.57177244	-0.04470216	-0.76889178	-0.66070858	-0.60814488	-0.15647698	-0.64685302	-0.52861270	0.07800013	-0.70090840	0.39076017	0.11464040	-0.71682373	0.09872741	0.20679376	-0.63486494	-0.26702794	-0.36160006	-0.66642883	-0.19301361	-0.44891991
7189	71.88000000	-0.94068295	-0.00417472	0.16206108	-0.57075086	-0.04107393	-0.76219310	-0.65494115	-0.61167669	-0.15256695	-0.64471955	-0.53372014	0.07996960	-0.71925403	0.37473757	0.11773209	-0.71098224	0.09464470	0.21142042	-0.63479056	-0.26862212	-0.36275554	-0.65524485	-0.20054312	-0.46248490
7190	71.89000000	-0.94014318	-0.00467877	0.16395946	-0.57293773	-0.03358518	-0.76640581	-0.65100867	-0.61875493	-0.15344490	-0.64192920	-0.53254669	0.08126482	-0.72650387	0.35422696	0.11684460	-0.70569314	0.08642208	0.20977068	-0.63451591	-0.27332739	-0.36724905	-0.64197117	-0.20568285	-0.47308203
7191	71.90000000	-0.93757861	-0.00300544	0.16754351	-0.57130446	-0.03447995	-0.76811184	-0.64758931	-0.62601425	-0.15639646	-0.63476194	-0.54133189	0.07694002	-0.73048000	0.34245567	0.11178586	-0.70867455	0.07616981	0.21218013	-0.63489705	-0.27853633	-0.36562008	-0.62984014	-0.20693877	-0.48440564
7192	71.91000000	-0.93673906	-0.00209075	0.16888971	-0.56883554	-0.03182955	-0.76653515	-0.64361945	-0.62436334	-0.15249227	-0.63534734	-0.54536456	0.07386852	-0.74262247	0.32525478	0.11464118	-0.70841282	0.06857984	0.21398908	-0.63161391	-0.28298559	-0.36552354	-0.62091795	-0.21798519	-0.48557916
